<svg xmlns="http://www.w3.org/2000/svg" viewBox="0 0 1200 900" role="img" aria-labelledby="title desc">
  <title id="title">Custom jade seal</title>
  <desc id="desc">A green jade seal beside red seal impressions, paper, and seal paste.</desc>
  <defs>
    <linearGradient id="background" x1="0" y1="0" x2="1" y2="1">
      <stop offset="0" stop-color="#f7fbf3"/>
      <stop offset="0.48" stop-color="#c9d8c2"/>
      <stop offset="1" stop-color="#687a63"/>
    </linearGradient>
    <linearGradient id="paper" x1="0" y1="0" x2="1" y2="1">
      <stop offset="0" stop-color="#fffef9"/>
      <stop offset="0.62" stop-color="#ece4d4"/>
      <stop offset="1" stop-color="#c8b9a1"/>
    </linearGradient>
    <linearGradient id="jade" x1="0.18" y1="0.05" x2="0.9" y2="0.96">
      <stop offset="0" stop-color="#eff8e8"/>
      <stop offset="0.22" stop-color="#a8d4a1"/>
      <stop offset="0.48" stop-color="#4f8d63"/>
      <stop offset="0.75" stop-color="#1f4d38"/>
      <stop offset="1" stop-color="#0e2a21"/>
    </linearGradient>
    <linearGradient id="jade-side" x1="0" y1="0" x2="1" y2="1">
      <stop offset="0" stop-color="#7fb284"/>
      <stop offset="0.52" stop-color="#346446"/>
      <stop offset="1" stop-color="#112d24"/>
    </linearGradient>
    <radialGradient id="vermilion" cx="49%" cy="44%" r="59%">
      <stop offset="0" stop-color="#f1573e"/>
      <stop offset="0.52" stop-color="#b71e1e"/>
      <stop offset="1" stop-color="#61080b"/>
    </radialGradient>
    <filter id="grain">
      <feTurbulence baseFrequency="0.018 0.031" numOctaves="4" seed="143"/>
      <feColorMatrix type="saturate" values="0"/>
      <feComponentTransfer>
        <feFuncA type="table" tableValues="0 0.15"/>
      </feComponentTransfer>
      <feBlend in="SourceGraphic" mode="multiply"/>
    </filter>
    <filter id="shadow" x="-20%" y="-20%" width="140%" height="140%">
      <feDropShadow dx="0" dy="28" stdDeviation="24" flood-color="#172417" flood-opacity="0.3"/>
    </filter>
  </defs>
  <rect width="1200" height="900" fill="url(#background)"/>
  <path d="M0 170 1200 76v824H0Z" fill="#1d2e24" opacity="0.18"/>
  <g filter="url(#grain)">
    <path d="M116 214 790 142 850 718 176 802Z" fill="url(#paper)" filter="url(#shadow)"/>
    <path d="M718 268 1062 320 1004 730 662 680Z" fill="#d7c8b1" filter="url(#shadow)"/>
    <path d="M760 360h202M738 424h218M720 488h188" stroke="#665646" stroke-width="10" stroke-linecap="round" opacity="0.17"/>
    <g transform="rotate(6 850 604)">
      <rect x="774" y="528" width="152" height="152" fill="url(#vermilion)" opacity="0.94"/>
      <path d="M805 565h90M805 603h90M805 641h90M835 552v102M870 552v102" stroke="#f9dfd8" stroke-width="6" stroke-linecap="round" opacity="0.47"/>
    </g>
    <g filter="url(#shadow)">
      <path d="M320 276c0-58 74-106 164-106s164 48 164 106v350c0 58-74 106-164 106s-164-48-164-106Z" fill="url(#jade-side)"/>
      <ellipse cx="484" cy="276" rx="164" ry="106" fill="url(#jade)"/>
      <ellipse cx="484" cy="276" rx="122" ry="70" fill="#eef9e9" opacity="0.18"/>
      <path d="M414 244h140M414 292h140M462 222v96M510 222v96" stroke="#10291f" stroke-width="8" stroke-linecap="round" opacity="0.44"/>
      <path d="M356 384c84 40 171 41 256 1" fill="none" stroke="#d9f0d4" stroke-width="8" stroke-linecap="round" opacity="0.18"/>
      <path d="M356 528c84 38 171 39 256 1" fill="none" stroke="#d9f0d4" stroke-width="7" stroke-linecap="round" opacity="0.12"/>
      <path d="M364 334c45-28 84-31 134-7 44 21 84 21 122-2" fill="none" stroke="#d8f7d2" stroke-width="12" stroke-linecap="round" opacity="0.12"/>
      <path d="M344 474c62-36 108-38 166-8 39 20 74 21 112 0" fill="none" stroke="#eff8e8" stroke-width="10" stroke-linecap="round" opacity="0.1"/>
    </g>
    <ellipse cx="930" cy="204" rx="124" ry="92" fill="#102318" opacity="0.3"/>
    <ellipse cx="922" cy="188" rx="112" ry="80" fill="#f3eadf"/>
    <ellipse cx="922" cy="188" rx="82" ry="55" fill="url(#vermilion)"/>
    <path d="M872 174c29-23 67-30 108-21" fill="none" stroke="#ffc1b1" stroke-width="11" stroke-linecap="round" opacity="0.28"/>
    <path d="M220 660h180M220 706h256" stroke="#84705e" stroke-width="10" stroke-linecap="round" opacity="0.2"/>
    <g transform="rotate(-4 626 668)">
      <rect x="552" y="596" width="148" height="148" fill="url(#vermilion)" opacity="0.9"/>
      <path d="M582 632h88M582 668h88M582 704h88M612 620v96M646 620v96" stroke="#f9dfd8" stroke-width="6" stroke-linecap="round" opacity="0.46"/>
    </g>
  </g>
</svg>
