<svg xmlns="http://www.w3.org/2000/svg" viewBox="0 0 1200 900" role="img" aria-labelledby="title desc">
  <title id="title">Jade, agate, and Qingtian stone seals</title>
  <desc id="desc">Jade, agate, and Qingtian stone seals beside red seal impressions and stationery.</desc>
  <defs>
    <linearGradient id="background" x1="0" y1="0" x2="1" y2="1">
      <stop offset="0" stop-color="#f9f6ee"/>
      <stop offset="0.5" stop-color="#d0c2af"/>
      <stop offset="1" stop-color="#6d655c"/>
    </linearGradient>
    <linearGradient id="paper" x1="0" y1="0" x2="1" y2="1">
      <stop offset="0" stop-color="#fffefa"/>
      <stop offset="0.62" stop-color="#eadfce"/>
      <stop offset="1" stop-color="#c5b39d"/>
    </linearGradient>
    <linearGradient id="jade" x1="0.18" y1="0.05" x2="0.9" y2="0.96">
      <stop offset="0" stop-color="#edf8e5"/>
      <stop offset="0.28" stop-color="#9ecb91"/>
      <stop offset="0.58" stop-color="#4a7f55"/>
      <stop offset="1" stop-color="#142c22"/>
    </linearGradient>
    <linearGradient id="agate" x1="0.15" y1="0.04" x2="0.9" y2="0.96">
      <stop offset="0" stop-color="#ffe2c8"/>
      <stop offset="0.24" stop-color="#d98b68"/>
      <stop offset="0.52" stop-color="#8b4a55"/>
      <stop offset="0.76" stop-color="#5c3e6f"/>
      <stop offset="1" stop-color="#201827"/>
    </linearGradient>
    <linearGradient id="qingtian" x1="0.13" y1="0.04" x2="0.88" y2="0.96">
      <stop offset="0" stop-color="#f0ead5"/>
      <stop offset="0.34" stop-color="#b5b999"/>
      <stop offset="0.65" stop-color="#77765b"/>
      <stop offset="1" stop-color="#302b22"/>
    </linearGradient>
    <radialGradient id="vermilion" cx="49%" cy="44%" r="60%">
      <stop offset="0" stop-color="#f0563d"/>
      <stop offset="0.55" stop-color="#b51f1f"/>
      <stop offset="1" stop-color="#62080b"/>
    </radialGradient>
    <filter id="grain">
      <feTurbulence baseFrequency="0.018 0.031" numOctaves="4" seed="211"/>
      <feColorMatrix type="saturate" values="0"/>
      <feComponentTransfer>
        <feFuncA type="table" tableValues="0 0.14"/>
      </feComponentTransfer>
      <feBlend in="SourceGraphic" mode="multiply"/>
    </filter>
    <filter id="shadow" x="-20%" y="-20%" width="140%" height="140%">
      <feDropShadow dx="0" dy="28" stdDeviation="24" flood-color="#201813" flood-opacity="0.28"/>
    </filter>
  </defs>
  <rect width="1200" height="900" fill="url(#background)"/>
  <path d="M0 188 1200 82v818H0Z" fill="#30261f" opacity="0.17"/>
  <g filter="url(#grain)">
    <path d="M112 220 804 142 862 728 166 804Z" fill="url(#paper)" filter="url(#shadow)"/>
    <path d="M722 266 1064 322 1006 730 664 684Z" fill="#d7c5ae" filter="url(#shadow)"/>
    <path d="M766 362h198M744 426h214M728 492h184" stroke="#6b5a48" stroke-width="10" stroke-linecap="round" opacity="0.17"/>
    <g filter="url(#shadow)">
      <path d="M248 332c0-52 66-96 146-96s146 44 146 96v300c0 52-66 96-146 96s-146-44-146-96Z" fill="#365f43"/>
      <ellipse cx="394" cy="332" rx="146" ry="96" fill="url(#jade)"/>
      <path d="M310 446c68 34 140 34 208 0" fill="none" stroke="#d8efd2" stroke-width="8" stroke-linecap="round" opacity="0.15"/>
      <path d="M335 307h118M374 274v78" stroke="#153022" stroke-width="8" stroke-linecap="round" opacity="0.42"/>
    </g>
    <g filter="url(#shadow)">
      <path d="M520 380c0-48 60-88 134-88s134 40 134 88v252c0 48-60 88-134 88s-134-40-134-88Z" fill="#573f5e"/>
      <ellipse cx="654" cy="380" rx="134" ry="88" fill="url(#agate)"/>
      <path d="M556 359c55-36 103-38 151-8 33 21 62 24 92 6" fill="none" stroke="#ffd6bb" stroke-width="13" stroke-linecap="round" opacity="0.17"/>
      <path d="M556 500c65 31 133 31 199 0" fill="none" stroke="#f4c7c5" stroke-width="8" stroke-linecap="round" opacity="0.14"/>
      <path d="M604 356h100M637 326v68" stroke="#241629" stroke-width="8" stroke-linecap="round" opacity="0.42"/>
    </g>
    <g filter="url(#shadow)">
      <path d="M790 448c0-42 52-78 116-78s116 36 116 78v194c0 42-52 78-116 78s-116-36-116-78Z" fill="#5d5d49"/>
      <ellipse cx="906" cy="448" rx="116" ry="78" fill="url(#qingtian)"/>
      <path d="M832 544c56 27 114 27 172 0" fill="none" stroke="#e8e0bf" stroke-width="7" stroke-linecap="round" opacity="0.15"/>
      <path d="M862 426h88M892 398v60" stroke="#28261f" stroke-width="7" stroke-linecap="round" opacity="0.42"/>
    </g>
    <g transform="rotate(6 842 612)">
      <rect x="764" y="536" width="156" height="156" fill="url(#vermilion)" opacity="0.92"/>
      <path d="M796 574h92M796 613h92M796 652h92M827 562v102M861 562v102" stroke="#f9dfd8" stroke-width="6" stroke-linecap="round" opacity="0.47"/>
    </g>
    <ellipse cx="950" cy="196" rx="122" ry="90" fill="#1e120d" opacity="0.3"/>
    <ellipse cx="942" cy="182" rx="110" ry="78" fill="#f3eadf"/>
    <ellipse cx="942" cy="182" rx="80" ry="53" fill="url(#vermilion)"/>
    <path d="M892 169c29-23 67-30 108-21" fill="none" stroke="#ffc1b1" stroke-width="11" stroke-linecap="round" opacity="0.28"/>
    <path d="M224 762h198M224 804h306" stroke="#8a7561" stroke-width="10" stroke-linecap="round" opacity="0.2"/>
  </g>
</svg>
