<svg xmlns="http://www.w3.org/2000/svg" viewBox="0 0 1200 900" role="img" aria-labelledby="title desc">
  <title id="title">Luxury personal seal</title>
  <desc id="desc">A luxury natural stone personal seal beside red seal impressions, fine stationery, and a fountain pen.</desc>
  <defs>
    <linearGradient id="background" x1="0" y1="0" x2="1" y2="1">
      <stop offset="0" stop-color="#fbf8f0"/>
      <stop offset="0.5" stop-color="#d5c5ae"/>
      <stop offset="1" stop-color="#5f5750"/>
    </linearGradient>
    <linearGradient id="paper" x1="0" y1="0" x2="1" y2="1">
      <stop offset="0" stop-color="#fffefa"/>
      <stop offset="0.62" stop-color="#eee1cf"/>
      <stop offset="1" stop-color="#c8b59d"/>
    </linearGradient>
    <linearGradient id="stone" x1="0.18" y1="0.05" x2="0.9" y2="0.96">
      <stop offset="0" stop-color="#f2ede4"/>
      <stop offset="0.25" stop-color="#bfa78f"/>
      <stop offset="0.52" stop-color="#6c5542"/>
      <stop offset="0.78" stop-color="#2b241e"/>
      <stop offset="1" stop-color="#11100f"/>
    </linearGradient>
    <linearGradient id="stone-side" x1="0" y1="0" x2="1" y2="1">
      <stop offset="0" stop-color="#9a806c"/>
      <stop offset="0.55" stop-color="#514235"/>
      <stop offset="1" stop-color="#171312"/>
    </linearGradient>
    <linearGradient id="pen" x1="0" y1="0" x2="1" y2="1">
      <stop offset="0" stop-color="#f0e7d3"/>
      <stop offset="0.42" stop-color="#9b7b4d"/>
      <stop offset="1" stop-color="#241914"/>
    </linearGradient>
    <radialGradient id="vermilion" cx="49%" cy="44%" r="60%">
      <stop offset="0" stop-color="#f0563d"/>
      <stop offset="0.55" stop-color="#b51f1f"/>
      <stop offset="1" stop-color="#62080b"/>
    </radialGradient>
    <filter id="grain">
      <feTurbulence baseFrequency="0.018 0.031" numOctaves="4" seed="251"/>
      <feColorMatrix type="saturate" values="0"/>
      <feComponentTransfer>
        <feFuncA type="table" tableValues="0 0.14"/>
      </feComponentTransfer>
      <feBlend in="SourceGraphic" mode="multiply"/>
    </filter>
    <filter id="shadow" x="-20%" y="-20%" width="140%" height="140%">
      <feDropShadow dx="0" dy="28" stdDeviation="24" flood-color="#201813" flood-opacity="0.3"/>
    </filter>
  </defs>
  <rect width="1200" height="900" fill="url(#background)"/>
  <path d="M0 188 1200 82v818H0Z" fill="#30261f" opacity="0.18"/>
  <g filter="url(#grain)">
    <path d="M118 216 802 144 860 728 172 804Z" fill="url(#paper)" filter="url(#shadow)"/>
    <path d="M708 268 1064 322 1006 734 648 684Z" fill="#d5c4ad" filter="url(#shadow)"/>
    <path d="M754 362h206M732 426h220M714 492h190" stroke="#6b5a48" stroke-width="10" stroke-linecap="round" opacity="0.17"/>
    <g filter="url(#shadow)">
      <path d="M412 248c0-60 74-108 166-108s166 48 166 108v362c0 60-74 108-166 108s-166-48-166-108Z" fill="url(#stone-side)"/>
      <ellipse cx="578" cy="248" rx="166" ry="108" fill="url(#stone)"/>
      <ellipse cx="578" cy="248" rx="122" ry="72" fill="#fff1e5" opacity="0.16"/>
      <path d="M508 214h140M508 264h140M555 192v98M602 192v98" stroke="#201711" stroke-width="8" stroke-linecap="round" opacity="0.43"/>
      <path d="M450 360c84 41 172 42 256 1" fill="none" stroke="#ead7c7" stroke-width="8" stroke-linecap="round" opacity="0.17"/>
      <path d="M450 514c84 39 172 40 256 1" fill="none" stroke="#ead7c7" stroke-width="7" stroke-linecap="round" opacity="0.12"/>
    </g>
    <g transform="rotate(-14 312 666)" filter="url(#shadow)">
      <path d="M164 648h322c26 0 46 20 46 46s-20 46-46 46H164z" fill="url(#pen)"/>
      <path d="M486 648l92 46-92 46z" fill="#211914"/>
      <path d="M220 670h210" stroke="#f2dfba" stroke-width="9" stroke-linecap="round" opacity="0.38"/>
    </g>
    <g transform="rotate(5 820 608)">
      <rect x="744" y="530" width="156" height="156" fill="url(#vermilion)" opacity="0.93"/>
      <path d="M776 568h92M776 607h92M776 646h92M807 556v102M841 556v102" stroke="#f9dfd8" stroke-width="6" stroke-linecap="round" opacity="0.47"/>
    </g>
    <path d="M230 610c66 38 148 56 246 54 74-1 142 13 205 43" fill="none" stroke="#a92222" stroke-width="14" stroke-linecap="round" opacity="0.78"/>
    <path d="M226 332c58 24 112 24 164 0 58-27 112-27 164 0" fill="none" stroke="#756352" stroke-width="12" stroke-linecap="round" opacity="0.15"/>
    <ellipse cx="944" cy="198" rx="122" ry="90" fill="#1e120d" opacity="0.3"/>
    <ellipse cx="936" cy="184" rx="110" ry="78" fill="#f3eadf"/>
    <ellipse cx="936" cy="184" rx="80" ry="53" fill="url(#vermilion)"/>
    <path d="M886 170c29-23 67-30 108-21" fill="none" stroke="#ffc1b1" stroke-width="11" stroke-linecap="round" opacity="0.28"/>
  </g>
</svg>
