<svg xmlns="http://www.w3.org/2000/svg" width="1440" height="900" viewBox="0 0 1440 900" role="img" aria-labelledby="title desc">
  <title id="title">One-of-a-kind stone seal</title>
  <desc id="desc">A one-of-a-kind natural stone seal with unique patterns beside red ink, paper, and stamped impressions.</desc>
  <defs>
    <linearGradient id="desk" x1="0" x2="1" y1="0" y2="1">
      <stop offset="0" stop-color="#f8efdf"/>
      <stop offset="1" stop-color="#d5c0a1"/>
    </linearGradient>
    <linearGradient id="paper" x1="0" x2="1" y1="0" y2="1">
      <stop offset="0" stop-color="#fffaf0"/>
      <stop offset="1" stop-color="#e8dcc4"/>
    </linearGradient>
    <linearGradient id="stone" x1="0" x2="1" y1="0" y2="1">
      <stop offset="0" stop-color="#243f3a"/>
      <stop offset="0.28" stop-color="#5a8777"/>
      <stop offset="0.55" stop-color="#d7c48f"/>
      <stop offset="0.76" stop-color="#8a6252"/>
      <stop offset="1" stop-color="#2f2725"/>
    </linearGradient>
    <linearGradient id="sideStone" x1="0" x2="1" y1="0" y2="1">
      <stop offset="0" stop-color="#f0e7d2"/>
      <stop offset="0.55" stop-color="#b7a985"/>
      <stop offset="1" stop-color="#5e6d60"/>
    </linearGradient>
    <filter id="shadow" x="-20%" y="-20%" width="140%" height="140%">
      <feDropShadow dx="0" dy="22" stdDeviation="24" flood-color="#302216" flood-opacity="0.18"/>
    </filter>
  </defs>
  <rect width="1440" height="900" fill="url(#desk)"/>
  <path d="M0 690 C196 616 383 706 557 642 C745 573 869 546 1044 600 C1221 655 1320 640 1440 582 L1440 900 L0 900 Z" fill="#2f6a5d" opacity="0.12"/>
  <path d="M0 760 C202 711 346 780 522 735 C706 688 843 640 1040 705 C1219 764 1344 734 1440 696 L1440 900 L0 900 Z" fill="#b63b34" opacity="0.1"/>
  <g filter="url(#shadow)">
    <rect x="172" y="142" width="470" height="588" rx="18" fill="url(#paper)" transform="rotate(-5 407 436)"/>
    <path d="M255 251 C318 188 372 286 432 221 C473 177 532 202 574 155" fill="none" stroke="#334c47" stroke-width="11" stroke-linecap="round" transform="rotate(-5 414 220)"/>
    <path d="M240 348 C314 294 372 391 448 326 C500 282 540 322 594 267" fill="none" stroke="#b33a32" stroke-width="8" stroke-linecap="round" opacity="0.72" transform="rotate(-5 417 326)"/>
    <rect x="245" y="476" width="303" height="13" rx="7" fill="#665447" opacity="0.26" transform="rotate(-5 397 482)"/>
    <rect x="247" y="519" width="250" height="12" rx="6" fill="#665447" opacity="0.2" transform="rotate(-5 372 525)"/>
    <circle cx="529" cy="633" r="43" fill="none" stroke="#b33a32" stroke-width="10" transform="rotate(-5 529 633)"/>
    <path d="M505 609 L554 657 M553 609 L505 657" stroke="#b33a32" stroke-width="8" stroke-linecap="round" transform="rotate(-5 529 633)"/>
  </g>
  <g filter="url(#shadow)">
    <ellipse cx="716" cy="751" rx="132" ry="35" fill="#705343" opacity="0.24"/>
    <rect x="626" y="256" width="178" height="454" rx="34" fill="url(#stone)"/>
    <path d="M644 303 C693 372 733 275 787 367 C817 417 773 483 808 548" fill="none" stroke="#f0e0b7" stroke-width="14" stroke-linecap="round" opacity="0.36"/>
    <path d="M628 437 C673 394 727 465 801 409" fill="none" stroke="#203c37" stroke-width="12" stroke-linecap="round" opacity="0.32"/>
    <path d="M637 583 C683 536 751 625 804 562" fill="none" stroke="#cfa06d" stroke-width="10" stroke-linecap="round" opacity="0.45"/>
    <circle cx="769" cy="330" r="19" fill="#f6edd7" opacity="0.45"/>
    <circle cx="668" cy="512" r="13" fill="#2d2524" opacity="0.26"/>
    <rect x="595" y="692" width="240" height="68" rx="20" fill="#2c302b"/>
    <rect x="642" y="709" width="146" height="30" rx="10" fill="#b33a32"/>
    <path d="M676 713 L695 735 M752 713 L732 735" stroke="#f4d7c6" stroke-width="6" stroke-linecap="round"/>
  </g>
  <g filter="url(#shadow)" opacity="0.95">
    <rect x="930" y="178" width="284" height="376" rx="16" fill="#fbf4e8" transform="rotate(6 1072 366)"/>
    <rect x="980" y="248" width="158" height="35" rx="18" fill="#405c54" opacity="0.8" transform="rotate(6 1059 266)"/>
    <rect x="975" y="337" width="196" height="11" rx="6" fill="#5e4e43" opacity="0.24" transform="rotate(6 1073 342)"/>
    <rect x="971" y="378" width="158" height="11" rx="6" fill="#5e4e43" opacity="0.18" transform="rotate(6 1050 383)"/>
    <circle cx="1120" cy="468" r="36" fill="#b33a32" opacity="0.88" transform="rotate(6 1120 468)"/>
  </g>
  <g filter="url(#shadow)">
    <ellipse cx="999" cy="731" rx="86" ry="24" fill="#705343" opacity="0.22"/>
    <rect x="940" y="472" width="118" height="235" rx="26" fill="url(#sideStone)"/>
    <path d="M954 515 C988 556 1017 506 1052 563" fill="none" stroke="#fff1d0" stroke-width="9" opacity="0.34"/>
    <path d="M945 632 C984 599 1017 652 1059 615" fill="none" stroke="#5a6d61" stroke-width="8" opacity="0.38"/>
    <rect x="921" y="692" width="156" height="52" rx="16" fill="#3b423b"/>
    <circle cx="999" cy="718" r="18" fill="#b33a32"/>
  </g>
  <g opacity="0.88">
    <circle cx="360" cy="757" r="42" fill="#141211"/>
    <circle cx="360" cy="757" r="25" fill="#b33a32"/>
    <path d="M322 820 L440 789" stroke="#2e241d" stroke-width="15" stroke-linecap="round"/>
    <path d="M421 794 L474 742" stroke="#2e241d" stroke-width="10" stroke-linecap="round"/>
  </g>
  <g fill="#3d3027" opacity="0.45">
    <rect x="1152" y="720" width="146" height="14" rx="7"/>
    <rect x="1178" y="752" width="92" height="14" rx="7"/>
    <rect x="138" y="804" width="150" height="14" rx="7"/>
    <rect x="166" y="835" width="96" height="14" rx="7"/>
  </g>
</svg>
